STARTFONT 2.1
COMMENT Copyright (C) 1989-1991 Network Computing Devices, Inc.
COMMENT Portions Copyright (C) 1994 Aleksei Rudnev <alex@kiae.su>
COMMENT Portions Copyright (C) 1994-1995 Cronyx Ltd.
COMMENT Changes Copyright (C) 1996-1997 by Andrey A. Chernov, Moscow, Russia.
COMMENT Changes 1999 by Serge Winitzki.
COMMENT This software may be used, modified, copied, distributed, and sold,
COMMENT in both source and binary form provided that the copyright
COMMENT and these terms are retained. Under no circumstances is the author
COMMENT responsible for the proper functioning of this software, nor does
COMMENT the author assume any responsibility for damages incurred with its use.
COMMENT $XFree86$
FONT -Cronyx-Fixed-Medium-R-Normal--20-200-75-75-C-100-KOI8-R
SIZE 20 75 75
FONTBOUNDINGBOX 10 20 0 -5
STARTPROPERTIES 21
FONTNAME_REGISTRY ""
FOUNDRY "Cronyx"
FAMILY_NAME "Fixed"
WEIGHT_NAME "Medium"
SLANT "R"
SETWIDTH_NAME "Normal"
ADD_STYLE_NAME ""
PIXEL_SIZE 20
POINT_SIZE 200
RESOLUTION_X 75
RESOLUTION_Y 75
SPACING "C"
AVERAGE_WIDTH 100
CHARSET_REGISTRY "KOI8"
CHARSET_ENCODING "R"
DEFAULT_CHAR 0
FONT_DESCENT 5
FONT_ASCENT 15
COPYRIGHT "Copyright 1989-1991 Network Computing Devices, Inc., Portions Copyright (C) 1996-1997 by Andrey A. Chernov, Moscow, Russia."
_XMBDFED_INFO "Edited with xmbdfed 4.3."
_XFREE86_GLYPH_RANGES "0_126 149 152_154 156_158 163 179 191_255"
ENDPROPERTIES
CHARS 201
STARTCHAR null
ENCODING 0
SWIDTH 480 0
DWIDTH 10 0
BBX 10 13 0 0
BITMAP
6180
4080
0000
0000
4080
6180
4080
0000
0000
0000
0000
4080
6180
ENDCHAR
STARTCHAR uni25C6
ENCODING 1
SWIDTH 480 0
DWIDTH 10 0
BBX 10 8 0 2
BITMAP
0C00
1E00
3F00
7F80
7F80
3F00
1E00
0C00
ENDCHAR
STARTCHAR shade
ENCODING 2
SWIDTH 480 0
DWIDTH 10 0
BBX 10 20 0 -5
BITMAP
5540
AA80
5540
AA80
5540
AA80
5540
AA80
5540
AA80
5540
AA80
5540
AA80
5540
AA80
5540
AA80
5540
AA80
ENDCHAR
STARTCHAR uni2409
ENCODING 3
SWIDTH 480 0
DWIDTH 10 0
BBX 10 19 0 -4
BITMAP
5540
0000
2A80
0000
5540
0000
2A80
0000
5540
0000
2A80
0000
5540
0000
2A80
0000
5540
0000
2A80
ENDCHAR
STARTCHAR uni240C
ENCODING 4
SWIDTH 480 0
DWIDTH 10 0
BBX 10 14 0 -3
BITMAP
6600
6600
6600
3C00
3C00
1800
1800
0000
1F80
0600
0600
0600
0600
0600
ENDCHAR
STARTCHAR uni240D
ENCODING 5
SWIDTH 480 0
DWIDTH 10 0
BBX 10 14 0 -3
BITMAP
3C00
6600
6000
6000
6600
3C00
0000
1F00
1980
1980
1F00
1E00
1B00
1980
ENDCHAR
STARTCHAR uni240A
ENCODING 6
SWIDTH 480 0
DWIDTH 10 0
BBX 10 14 0 -3
BITMAP
6600
7600
7E00
7E00
6E00
6600
0000
0C00
0C00
0C00
0C00
0C00
0C00
0F80
ENDCHAR
STARTCHAR degree
ENCODING 7
SWIDTH 480 0
DWIDTH 10 0
BBX 8 7 0 3
BITMAP
0C
1E
3F
3F
3F
1E
0C
ENDCHAR
STARTCHAR plusminus
ENCODING 8
SWIDTH 480 0
DWIDTH 10 0
BBX 10 9 0 0
BITMAP
0C00
0C00
0C00
7F80
0C00
0C00
0C00
0000
7F80
ENDCHAR
STARTCHAR uni2424
ENCODING 9
SWIDTH 480 0
DWIDTH 10 0
BBX 10 14 0 -3
BITMAP
6600
6600
6600
7E00
6600
6600
6600
0000
1F80
0600
0600
0600
0600
0600
ENDCHAR
STARTCHAR uni240B
ENCODING 10
SWIDTH 480 0
DWIDTH 10 0
BBX 10 14 0 -3
BITMAP
3000
3000
3000
3000
3000
3E00
0000
0F80
0C00
0C00
0F00
0C00
0C00
0C00
ENDCHAR
STARTCHAR SF040000
ENCODING 11
SWIDTH 480 0
DWIDTH 10 0
BBX 8 10 0 5
BITMAP
0C
0C
0C
0C
0C
0C
0C
0C
0C
FC
ENDCHAR
STARTCHAR SF030000
ENCODING 12
SWIDTH 480 0
DWIDTH 10 0
BBX 8 11 0 -5
BITMAP
FC
0C
0C
0C
0C
0C
0C
0C
0C
0C
0C
ENDCHAR
STARTCHAR SF010000
ENCODING 13
SWIDTH 480 0
DWIDTH 10 0
BBX 10 11 0 -5
BITMAP
0FC0
0C00
0C00
0C00
0C00
0C00
0C00
0C00
0C00
0C00
0C00
ENDCHAR
STARTCHAR SF020000
ENCODING 14
SWIDTH 480 0
DWIDTH 10 0
BBX 10 10 0 5
BITMAP
0C00
0C00
0C00
0C00
0C00
0C00
0C00
0C00
0C00
0FC0
ENDCHAR
STARTCHAR SF050000
ENCODING 15
SWIDTH 480 0
DWIDTH 10 0
BBX 10 20 0 -5
BITMAP
0C00
0C00
0C00
0C00
0C00
0C00
0C00
0C00
0C00
FFC0
0C00
0C00
0C00
0C00
0C00
0C00
0C00
0C00
0C00
0C00
ENDCHAR
STARTCHAR char16
ENCODING 16
SWIDTH 480 0
DWIDTH 10 0
BBX 10 1 0 10
BITMAP
FFC0
ENDCHAR
STARTCHAR char17
ENCODING 17
SWIDTH 480 0
DWIDTH 10 0
BBX 10 1 0 8
BITMAP
FFC0
ENDCHAR
STARTCHAR char18
ENCODING 18
SWIDTH 480 0
DWIDTH 10 0
BBX 10 1 0 5
BITMAP
FFC0
ENDCHAR
STARTCHAR char19
ENCODING 19
SWIDTH 480 0
DWIDTH 10 0
BBX 10 1 0 2
BITMAP
FFC0
ENDCHAR
STARTCHAR char20
ENCODING 20
SWIDTH 480 0
DWIDTH 10 0
BBX 10 1 0 -1
BITMAP
FFC0
ENDCHAR
STARTCHAR SF080000
ENCODING 21
SWIDTH 480 0
DWIDTH 10 0
BBX 10 20 0 -5
BITMAP
0C00
0C00
0C00
0C00
0C00
0C00
0C00
0C00
0C00
0FC0
0C00
0C00
0C00
0C00
0C00
0C00
0C00
0C00
0C00
0C00
ENDCHAR
STARTCHAR SF090000
ENCODING 22
SWIDTH 480 0
DWIDTH 10 0
BBX 8 20 0 -5
BITMAP
0C
0C
0C
0C
0C
0C
0C
0C
0C
FC
0C
0C
0C
0C
0C
0C
0C
0C
0C
0C
ENDCHAR
STARTCHAR SF070000
ENCODING 23
SWIDTH 480 0
DWIDTH 10 0
BBX 10 10 0 5
BITMAP
0C00
0C00
0C00
0C00
0C00
0C00
0C00
0C00
0C00
FFC0
ENDCHAR
STARTCHAR SF060000
ENCODING 24
SWIDTH 480 0
DWIDTH 10 0
BBX 10 11 0 -5
BITMAP
FFC0
0C00
0C00
0C00
0C00
0C00
0C00
0C00
0C00
0C00
0C00
ENDCHAR
STARTCHAR SF110000
ENCODING 25
SWIDTH 480 0
DWIDTH 10 0
BBX 10 20 0 -5
BITMAP
0C00
0C00
0C00
0C00
0C00
0C00
0C00
0C00
0C00
0C00
0C00
0C00
0C00
0C00
0C00
0C00
0C00
0C00
0C00
0C00
ENDCHAR
STARTCHAR lessequal
ENCODING 26
SWIDTH 480 0
DWIDTH 10 0
BBX 10 10 0 0
BITMAP
01C0
0700
1C00
7000
1C00
0700
01C0
0000
0000
7FC0
ENDCHAR
STARTCHAR greaterequal
ENCODING 27
SWIDTH 480 0
DWIDTH 10 0
BBX 10 10 0 0
BITMAP
7000
1C00
0700
01C0
0700
1C00
7000
0000
0000
7FC0
ENDCHAR
STARTCHAR pi
ENCODING 28
SWIDTH 480 0
DWIDTH 10 0
BBX 10 8 0 0
BITMAP
0080
3F80
5B00
1B00
1B00
1B00
1B00
3300
ENDCHAR
STARTCHAR notequal
ENCODING 29
SWIDTH 480 0
DWIDTH 10 0
BBX 10 8 0 1
BITMAP
0180
0300
7FC0
0600
0C00
7FC0
1800
3000
ENDCHAR
STARTCHAR sterling
ENCODING 30
SWIDTH 480 0
DWIDTH 10 0
BBX 10 13 0 0
BITMAP
0F00
1980
1980
1800
1800
1800
7E00
1800
1800
1800
7C00
56C0
7380
ENDCHAR
STARTCHAR periodcentered
ENCODING 31
SWIDTH 480 0
DWIDTH 10 0
BBX 10 2 0 5
BITMAP
0C00
0C00
ENDCHAR
STARTCHAR space
ENCODING 32
SWIDTH 480 0
DWIDTH 10 0
BBX 0 0 0 0
BITMAP
ENDCHAR
STARTCHAR exclam
ENCODING 33
SWIDTH 480 0
DWIDTH 10 0
BBX 10 13 0 0
BITMAP
0C00
0C00
0C00
0C00
0C00
0C00
0C00
0C00
0C00
0C00
0000
0C00
0C00
ENDCHAR
STARTCHAR quotedbl
ENCODING 34
SWIDTH 480 0
DWIDTH 10 0
BBX 8 4 0 9
BITMAP
33
33
33
12
ENDCHAR
STARTCHAR numbersign
ENCODING 35
SWIDTH 480 0
DWIDTH 10 0
BBX 10 11 0 1
BITMAP
0D80
0D80
0D80
3FC0
1B00
1B00
1B00
7F80
3600
3600
3600
ENDCHAR
STARTCHAR dollar
ENCODING 36
SWIDTH 480 0
DWIDTH 10 0
BBX 10 13 0 0
BITMAP
0C00
3F00
6D80
6C00
6C00
6C00
3F00
0D80
0D80
0D80
6D80
3F00
0C00
ENDCHAR
STARTCHAR percent
ENCODING 37
SWIDTH 480 0
DWIDTH 10 0
BBX 10 12 0 0
BITMAP
3980
6D80
6F00
3B00
0600
0600
0C00
0C00
1B80
1EC0
36C0
3380
ENDCHAR
STARTCHAR ampersand
ENCODING 38
SWIDTH 480 0
DWIDTH 10 0
BBX 10 13 0 0
BITMAP
1C00
3600
3600
3600
3C00
1800
3800
6C00
66C0
6380
6300
7780
3CC0
ENDCHAR
STARTCHAR quotesingle
ENCODING 39
SWIDTH 480 0
DWIDTH 10 0
BBX 8 4 0 9
BITMAP
18
18
18
10
ENDCHAR
STARTCHAR parenleft
ENCODING 40
SWIDTH 480 0
DWIDTH 10 0
BBX 8 13 0 0
BITMAP
03
06
0C
0C
18
18
18
18
18
0C
0C
06
03
ENDCHAR
STARTCHAR parenright
ENCODING 41
SWIDTH 480 0
DWIDTH 10 0
BBX 8 13 0 0
BITMAP
30
18
0C
0C
06
06
06
06
06
0C
0C
18
30
ENDCHAR
STARTCHAR asterisk
ENCODING 42
SWIDTH 480 0
DWIDTH 10 0
BBX 10 7 0 3
BITMAP
3300
3300
1E00
7F80
1E00
3300
3300
ENDCHAR
STARTCHAR plus
ENCODING 43
SWIDTH 480 0
DWIDTH 10 0
BBX 10 7 0 3
BITMAP
0C00
0C00
0C00
7F80
0C00
0C00
0C00
ENDCHAR
STARTCHAR comma
ENCODING 44
SWIDTH 480 0
DWIDTH 10 0
BBX 8 3 0 -1
BITMAP
0E
0E
18
ENDCHAR
STARTCHAR hyphen
ENCODING 45
SWIDTH 480 0
DWIDTH 10 0
BBX 10 1 0 5
BITMAP
3F80
ENDCHAR
STARTCHAR period
ENCODING 46
SWIDTH 480 0
DWIDTH 10 0
BBX 10 3 0 0
BITMAP
0E00
0E00
0E00
ENDCHAR
STARTCHAR slash
ENCODING 47
SWIDTH 480 0
DWIDTH 10 0
BBX 10 12 0 0
BITMAP
0180
0180
0300
0300
0600
0600
0C00
0C00
1800
1800
3000
3000
ENDCHAR
STARTCHAR zero
ENCODING 48
SWIDTH 480 0
DWIDTH 10 0
BBX 10 13 0 0
BITMAP
0C00
1E00
3300
3300
6180
6180
6180
6180
6180
3300
3300
1E00
0C00
ENDCHAR
STARTCHAR one
ENCODING 49
SWIDTH 480 0
DWIDTH 10 0
BBX 10 13 0 0
BITMAP
0C00
1C00
3C00
6C00
0C00
0C00
0C00
0C00
0C00
0C00
0C00
0C00
7F80
ENDCHAR
STARTCHAR two
ENCODING 50
SWIDTH 480 0
DWIDTH 10 0
BBX 10 13 0 0
BITMAP
1E00
3300
6180
6180
0180
0180
0300
0E00
1800
3000
6000
6000
7F80
ENDCHAR
STARTCHAR three
ENCODING 51
SWIDTH 480 0
DWIDTH 10 0
BBX 10 13 0 0
BITMAP
1E00
3300
6180
6180
0180
0300
0E00
0300
0180
6180
6180
3300
1E00
ENDCHAR
STARTCHAR four
ENCODING 52
SWIDTH 480 0
DWIDTH 10 0
BBX 10 13 0 0
BITMAP
0100
0300
0700
0F00
1B00
3300
6300
6300
7F80
0300
0300
0300
0300
ENDCHAR
STARTCHAR five
ENCODING 53
SWIDTH 480 0
DWIDTH 10 0
BBX 10 13 0 0
BITMAP
7F80
6000
6000
6000
6000
6E00
7300
0180
0180
0180
6180
3300
1E00
ENDCHAR
STARTCHAR six
ENCODING 54
SWIDTH 480 0
DWIDTH 10 0
BBX 10 13 0 0
BITMAP
1E00
3300
6100
6000
6000
6E00
7300
6180
6180
6180
6180
3300
1E00
ENDCHAR
STARTCHAR seven
ENCODING 55
SWIDTH 480 0
DWIDTH 10 0
BBX 10 13 0 0
BITMAP
7F80
0180
0180
0300
0300
0600
0600
0C00
0C00
1800
1800
3000
3000
ENDCHAR
STARTCHAR eight
ENCODING 56
SWIDTH 480 0
DWIDTH 10 0
BBX 10 13 0 0
BITMAP
1E00
3300
6180
6180
6180
3300
1E00
3300
6180
6180
6180
3300
1E00
ENDCHAR
STARTCHAR nine
ENCODING 57
SWIDTH 480 0
DWIDTH 10 0
BBX 10 13 0 0
BITMAP
1E00
3300
6180
6180
6180
6180
3380
1D80
0180
0180
2180
3300
1E00
ENDCHAR
STARTCHAR colon
ENCODING 58
SWIDTH 480 0
DWIDTH 10 0
BBX 10 8 0 2
BITMAP
0E00
0E00
0000
0000
0000
0000
0E00
0E00
ENDCHAR
STARTCHAR semicolon
ENCODING 59
SWIDTH 480 0
DWIDTH 10 0
BBX 8 9 0 1
BITMAP
0E
0E
00
00
00
00
0E
0E
1C
ENDCHAR
STARTCHAR less
ENCODING 60
SWIDTH 480 0
DWIDTH 10 0
BBX 8 13 0 0
BITMAP
01
03
06
0C
18
30
60
30
18
0C
06
03
01
ENDCHAR
STARTCHAR equal
ENCODING 61
SWIDTH 480 0
DWIDTH 10 0
BBX 10 6 0 3
BITMAP
7F80
0000
0000
0000
0000
7F80
ENDCHAR
STARTCHAR greater
ENCODING 62
SWIDTH 480 0
DWIDTH 10 0
BBX 10 13 0 0
BITMAP
2000
3000
1800
0C00
0600
0300
0180
0300
0600
0C00
1800
3000
2000
ENDCHAR
STARTCHAR question
ENCODING 63
SWIDTH 480 0
DWIDTH 10 0
BBX 10 13 0 0
BITMAP
1E00
3300
6180
6180
6180
0300
0600
0C00
0C00
0C00
0000
0C00
0C00
ENDCHAR
STARTCHAR at
ENCODING 64
SWIDTH 480 0
DWIDTH 10 0
BBX 10 13 0 0
BITMAP
1E00
3300
6180
6780
6F80
6D80
6D80
6D80
6F00
6600
6000
3180
1F00
ENDCHAR
STARTCHAR A
ENCODING 65
SWIDTH 480 0
DWIDTH 10 0
BBX 10 13 0 0
BITMAP
0C00
1E00
3300
3300
6180
6180
6180
7F80
6180
6180
6180
6180
6180
ENDCHAR
STARTCHAR B
ENCODING 66
SWIDTH 480 0
DWIDTH 10 0
BBX 10 13 0 0
BITMAP
7C00
6600
6300
6300
6300
6600
7E00
6300
6180
6180
6180
6300
7E00
ENDCHAR
STARTCHAR C
ENCODING 67
SWIDTH 480 0
DWIDTH 10 0
BBX 10 13 0 0
BITMAP
1E00
3300
6180
6000
6000
6000
6000
6000
6000
6000
6180
3300
1E00
ENDCHAR
STARTCHAR D
ENCODING 68
SWIDTH 480 0
DWIDTH 10 0
BBX 10 13 0 0
BITMAP
7E00
6300
6180
6180
6180
6180
6180
6180
6180
6180
6180
6300
7E00
ENDCHAR
STARTCHAR E
ENCODING 69
SWIDTH 480 0
DWIDTH 10 0
BBX 10 13 0 0
BITMAP
7F80
6000
6000
6000
6000
6000
7E00
6000
6000
6000
6000
6000
7F80
ENDCHAR
STARTCHAR F
ENCODING 70
SWIDTH 480 0
DWIDTH 10 0
BBX 10 13 0 0
BITMAP
7F80
6000
6000
6000
6000
6000
7E00
6000
6000
6000
6000
6000
6000
ENDCHAR
STARTCHAR G
ENCODING 71
SWIDTH 480 0
DWIDTH 10 0
BBX 10 13 0 0
BITMAP
1E00
3300
6180
6000
6000
6000
6780
6180
6180
6180
6180
3380
1E80
ENDCHAR
STARTCHAR H
ENCODING 72
SWIDTH 480 0
DWIDTH 10 0
BBX 10 13 0 0
BITMAP
6180
6180
6180
6180
6180
6180
7F80
6180
6180
6180
6180
6180
6180
ENDCHAR
STARTCHAR I
ENCODING 73
SWIDTH 480 0
DWIDTH 10 0
BBX 10 13 0 0
BITMAP
7F80
0C00
0C00
0C00
0C00
0C00
0C00
0C00
0C00
0C00
0C00
0C00
7F80
ENDCHAR
STARTCHAR J
ENCODING 74
SWIDTH 480 0
DWIDTH 10 0
BBX 10 13 0 0
BITMAP
0F80
0180
0180
0180
0180
0180
0180
0180
0180
6180
6180
3300
1E00
ENDCHAR
STARTCHAR K
ENCODING 75
SWIDTH 480 0
DWIDTH 10 0
BBX 10 13 0 0
BITMAP
6180
6180
6300
6300
6600
6600
7C00
6600
6600
6300
6300
6180
6180
ENDCHAR
STARTCHAR L
ENCODING 76
SWIDTH 480 0
DWIDTH 10 0
BBX 10 13 0 0
BITMAP
6000
6000
6000
6000
6000
6000
6000
6000
6000
6000
6000
6000
7F80
ENDCHAR
STARTCHAR M
ENCODING 77
SWIDTH 480 0
DWIDTH 10 0
BBX 10 13 0 0
BITMAP
6180
6180
7380
7380
7F80
6D80
6D80
6D80
6D80
6180
6180
6180
6180
ENDCHAR
STARTCHAR N
ENCODING 78
SWIDTH 480 0
DWIDTH 10 0
BBX 10 13 0 0
BITMAP
6180
7180
7180
7980
7980
6D80
6D80
6780
6780
6380
6380
6180
6180
ENDCHAR
STARTCHAR O
ENCODING 79
SWIDTH 480 0
DWIDTH 10 0
BBX 10 13 0 0
BITMAP
1E00
3300
6180
6180
6180
6180
6180
6180
6180
6180
6180
3300
1E00
ENDCHAR
STARTCHAR P
ENCODING 80
SWIDTH 480 0
DWIDTH 10 0
BBX 10 13 0 0
BITMAP
7E00
6300
6180
6180
6180
6180
6300
7E00
6000
6000
6000
6000
6000
ENDCHAR
STARTCHAR Q
ENCODING 81
SWIDTH 480 0
DWIDTH 10 0
BBX 10 14 0 -1
BITMAP
1E00
3300
6180
6180
6180
6180
6180
6180
6180
6D80
6780
3300
1F00
0180
ENDCHAR
STARTCHAR R
ENCODING 82
SWIDTH 480 0
DWIDTH 10 0
BBX 10 13 0 0
BITMAP
7E00
6300
6180
6180
6180
6180
6300
7E00
6600
6300
6300
6180
6180
ENDCHAR
STARTCHAR S
ENCODING 83
SWIDTH 480 0
DWIDTH 10 0
BBX 10 13 0 0
BITMAP
1E00
3300
6180
6000
6000
3000
1E00
0300
0180
0180
6180
3300
1E00
ENDCHAR
STARTCHAR T
ENCODING 84
SWIDTH 480 0
DWIDTH 10 0
BBX 10 13 0 0
BITMAP
7F80
0C00
0C00
0C00
0C00
0C00
0C00
0C00
0C00
0C00
0C00
0C00
0C00
ENDCHAR
STARTCHAR U
ENCODING 85
SWIDTH 480 0
DWIDTH 10 0
BBX 10 13 0 0
BITMAP
6180
6180
6180
6180
6180
6180
6180
6180
6180
6180
6180
3300
1E00
ENDCHAR
STARTCHAR V
ENCODING 86
SWIDTH 480 0
DWIDTH 10 0
BBX 10 13 0 0
BITMAP
6180
6180
6180
6180
3300
3300
3300
1E00
1E00
1E00
0C00
0C00
0C00
ENDCHAR
STARTCHAR W
ENCODING 87
SWIDTH 480 0
DWIDTH 10 0
BBX 10 13 0 0
BITMAP
6180
6180
6180
6180
6180
6D80
6D80
6D80
6D80
7380
7380
6180
6180
ENDCHAR
STARTCHAR X
ENCODING 88
SWIDTH 480 0
DWIDTH 10 0
BBX 10 13 0 0
BITMAP
6180
6180
3300
3300
1E00
1E00
0C00
1E00
1E00
3300
3300
6180
6180
ENDCHAR
STARTCHAR Y
ENCODING 89
SWIDTH 480 0
DWIDTH 10 0
BBX 10 13 0 0
BITMAP
6180
6180
3300
3300
1E00
1E00
0C00
0C00
0C00
0C00
0C00
0C00
0C00
ENDCHAR
STARTCHAR Z
ENCODING 90
SWIDTH 480 0
DWIDTH 10 0
BBX 10 13 0 0
BITMAP
7F80
0180
0180
0300
0600
0600
0C00
1800
1800
3000
6000
6000
7F80
ENDCHAR
STARTCHAR bracketleft
ENCODING 91
SWIDTH 480 0
DWIDTH 10 0
BBX 8 13 0 0
BITMAP
3F
30
30
30
30
30
30
30
30
30
30
30
3F
ENDCHAR
STARTCHAR backslash
ENCODING 92
SWIDTH 480 0
DWIDTH 10 0
BBX 10 12 0 0
BITMAP
3000
3000
1800
1800
0C00
0C00
0600
0600
0300
0300
0180
0180
ENDCHAR
STARTCHAR bracketright
ENCODING 93
SWIDTH 480 0
DWIDTH 10 0
BBX 8 13 0 0
BITMAP
3F
03
03
03
03
03
03
03
03
03
03
03
3F
ENDCHAR
STARTCHAR asciicircum
ENCODING 94
SWIDTH 480 0
DWIDTH 10 0
BBX 10 4 0 9
BITMAP
0C00
1E00
3300
6180
ENDCHAR
STARTCHAR underscore
ENCODING 95
SWIDTH 480 0
DWIDTH 10 0
BBX 10 1 0 -1
BITMAP
FFC0
ENDCHAR
STARTCHAR grave
ENCODING 96
SWIDTH 480 0
DWIDTH 10 0
BBX 8 3 0 10
BITMAP
38
1C
06
ENDCHAR
STARTCHAR a
ENCODING 97
SWIDTH 480 0
DWIDTH 10 0
BBX 10 8 0 0
BITMAP
1F00
3180
0180
3F80
6180
6180
6180
3E80
ENDCHAR
STARTCHAR b
ENCODING 98
SWIDTH 480 0
DWIDTH 10 0
BBX 10 13 0 0
BITMAP
6000
6000
6000
6000
6000
6E00
7300
6180
6180
6180
6180
7300
6E00
ENDCHAR
STARTCHAR c
ENCODING 99
SWIDTH 480 0
DWIDTH 10 0
BBX 10 8 0 0
BITMAP
1F00
3180
6000
6000
6000
6000
3180
1F00
ENDCHAR
STARTCHAR d
ENCODING 100
SWIDTH 480 0
DWIDTH 10 0
BBX 10 13 0 0
BITMAP
0180
0180
0180
0180
0180
1D80
3380
6180
6180
6180
6180
3380
1D80
ENDCHAR
STARTCHAR e
ENCODING 101
SWIDTH 480 0
DWIDTH 10 0
BBX 10 8 0 0
BITMAP
1E00
3300
6180
7F80
6000
6000
3180
1F00
ENDCHAR
STARTCHAR f
ENCODING 102
SWIDTH 480 0
DWIDTH 10 0
BBX 10 13 0 0
BITMAP
0F00
1980
1980
1800
1800
1800
1800
7E00
1800
1800
1800
1800
1800
ENDCHAR
STARTCHAR g
ENCODING 103
SWIDTH 480 0
DWIDTH 10 0
BBX 10 12 0 -4
BITMAP
3E80
6380
6300
6300
6300
3E00
6000
3F00
6180
6180
6180
3F00
ENDCHAR
STARTCHAR h
ENCODING 104
SWIDTH 480 0
DWIDTH 10 0
BBX 10 13 0 0
BITMAP
6000
6000
6000
6000
6000
6E00
7300
6180
6180
6180
6180
6180
6180
ENDCHAR
STARTCHAR i
ENCODING 105
SWIDTH 480 0
DWIDTH 10 0
BBX 10 11 0 0
BITMAP
0C00
0C00
0000
3C00
0C00
0C00
0C00
0C00
0C00
0C00
7F80
ENDCHAR
STARTCHAR j
ENCODING 106
SWIDTH 480 0
DWIDTH 10 0
BBX 10 15 0 -4
BITMAP
0180
0180
0000
0780
0180
0180
0180
0180
0180
0180
0180
3180
3180
3180
1F00
ENDCHAR
STARTCHAR k
ENCODING 107
SWIDTH 480 0
DWIDTH 10 0
BBX 10 13 0 0
BITMAP
6000
6000
6000
6000
6000
6300
6600
6C00
7800
7C00
6600
6300
6180
ENDCHAR
STARTCHAR l
ENCODING 108
SWIDTH 480 0
DWIDTH 10 0
BBX 10 13 0 0
BITMAP
3C00
0C00
0C00
0C00
0C00
0C00
0C00
0C00
0C00
0C00
0C00
0C00
7F80
ENDCHAR
STARTCHAR m
ENCODING 109
SWIDTH 480 0
DWIDTH 10 0
BBX 10 8 0 0
BITMAP
5B00
7F80
6D80
6D80
6D80
6D80
6D80
6D80
ENDCHAR
STARTCHAR n
ENCODING 110
SWIDTH 480 0
DWIDTH 10 0
BBX 10 8 0 0
BITMAP
6E00
7300
6180
6180
6180
6180
6180
6180
ENDCHAR
STARTCHAR o
ENCODING 111
SWIDTH 480 0
DWIDTH 10 0
BBX 10 8 0 0
BITMAP
1E00
3300
6180
6180
6180
6180
3300
1E00
ENDCHAR
STARTCHAR p
ENCODING 112
SWIDTH 480 0
DWIDTH 10 0
BBX 10 12 0 -4
BITMAP
6E00
7300
6180
6180
6180
6180
7300
6E00
6000
6000
6000
6000
ENDCHAR
STARTCHAR q
ENCODING 113
SWIDTH 480 0
DWIDTH 10 0
BBX 10 12 0 -4
BITMAP
1D80
3380
6180
6180
6180
6180
3380
1D80
0180
0180
0180
0180
ENDCHAR
STARTCHAR r
ENCODING 114
SWIDTH 480 0
DWIDTH 10 0
BBX 10 8 0 0
BITMAP
6F00
3980
3000
3000
3000
3000
3000
3000
ENDCHAR
STARTCHAR s
ENCODING 115
SWIDTH 480 0
DWIDTH 10 0
BBX 10 8 0 0
BITMAP
3F00
6180
6000
3F00
0180
0180
6180
3F00
ENDCHAR
STARTCHAR t
ENCODING 116
SWIDTH 480 0
DWIDTH 10 0
BBX 10 11 0 0
BITMAP
1800
1800
1800
7E00
1800
1800
1800
1800
1800
1980
0F00
ENDCHAR
STARTCHAR u
ENCODING 117
SWIDTH 480 0
DWIDTH 10 0
BBX 10 8 0 0
BITMAP
6180
6180
6180
6180
6180
6180
3380
1D80
ENDCHAR
STARTCHAR v
ENCODING 118
SWIDTH 480 0
DWIDTH 10 0
BBX 10 8 0 0
BITMAP
6180
6180
3300
3300
1E00
1E00
0C00
0C00
ENDCHAR
STARTCHAR w
ENCODING 119
SWIDTH 480 0
DWIDTH 10 0
BBX 10 8 0 0
BITMAP
6180
6180
6180
6D80
6D80
6D80
7F80
3300
ENDCHAR
STARTCHAR x
ENCODING 120
SWIDTH 480 0
DWIDTH 10 0
BBX 10 8 0 0
BITMAP
6180
3300
1E00
0C00
0C00
1E00
3300
6180
ENDCHAR
STARTCHAR y
ENCODING 121
SWIDTH 480 0
DWIDTH 10 0
BBX 10 12 0 -4
BITMAP
6180
6180
6180
6180
6180
6180
3380
1D80
0180
6180
3300
1E00
ENDCHAR
STARTCHAR z
ENCODING 122
SWIDTH 480 0
DWIDTH 10 0
BBX 10 8 0 0
BITMAP
3F80
0180
0300
0600
0C00
1800
3000
3F80
ENDCHAR
STARTCHAR braceleft
ENCODING 123
SWIDTH 480 0
DWIDTH 10 0
BBX 10 13 0 0
BITMAP
0780
0C00
0C00
0C00
0C00
0C00
7800
0C00
0C00
0C00
0C00
0C00
0780
ENDCHAR
STARTCHAR bar
ENCODING 124
SWIDTH 480 0
DWIDTH 10 0
BBX 10 13 0 0
BITMAP
0C00
0C00
0C00
0C00
0C00
0C00
0C00
0C00
0C00
0C00
0C00
0C00
0C00
ENDCHAR
STARTCHAR braceright
ENCODING 125
SWIDTH 480 0
DWIDTH 10 0
BBX 10 13 0 0
BITMAP
7800
0C00
0C00
0C00
0C00
0C00
0780
0C00
0C00
0C00
0C00
0C00
7800
ENDCHAR
STARTCHAR asciitilde
ENCODING 126
SWIDTH 480 0
DWIDTH 10 0
BBX 10 3 0 10
BITMAP
3980
6D80
6700
ENDCHAR
STARTCHAR bullet
ENCODING 149
SWIDTH 480 0
DWIDTH 10 0
BBX 8 5 0 3
BITMAP
1C
3E
3E
3E
1C
ENDCHAR
STARTCHAR lessequal
ENCODING 152
SWIDTH 480 0
DWIDTH 10 0
BBX 10 10 0 0
BITMAP
01C0
0700
1C00
7000
1C00
0700
01C0
0000
0000
7FC0
ENDCHAR
STARTCHAR greaterequal
ENCODING 153
SWIDTH 480 0
DWIDTH 10 0
BBX 10 10 0 0
BITMAP
7000
1C00
0700
01C0
0700
1C00
7000
0000
0000
7FC0
ENDCHAR
STARTCHAR space
ENCODING 154
SWIDTH 480 0
DWIDTH 10 0
BBX 0 0 0 0
BITMAP
ENDCHAR
STARTCHAR degree
ENCODING 156
SWIDTH 480 0
DWIDTH 10 0
BBX 8 5 0 8
BITMAP
1E
33
33
33
1E
ENDCHAR
STARTCHAR twosuperior
ENCODING 157
SWIDTH 480 0
DWIDTH 10 0
BBX 8 7 0 6
BITMAP
1C
36
06
0C
18
30
3E
ENDCHAR
STARTCHAR periodcentered
ENCODING 158
SWIDTH 480 0
DWIDTH 10 0
BBX 10 2 0 5
BITMAP
0C00
0C00
ENDCHAR
STARTCHAR afii10071
ENCODING 163
SWIDTH 480 0
DWIDTH 10 0
BBX 10 11 0 0
BITMAP
3300
3300
0000
3F00
6180
6180
7F80
6000
6000
6180
3F00
ENDCHAR
STARTCHAR afii10023
ENCODING 179
SWIDTH 480 0
DWIDTH 10 0
BBX 10 14 0 0
BITMAP
3300
7F80
6000
6000
6000
6000
6000
7F00
6000
6000
6000
6000
6000
7F80
ENDCHAR
STARTCHAR copyright
ENCODING 191
SWIDTH 480 0
DWIDTH 10 0
BBX 10 13 0 -1
BITMAP
1E00
3F00
6180
4C80
5E80
5A80
5880
5A80
5E80
4C80
6180
3F00
1E00
ENDCHAR
STARTCHAR afii10096
ENCODING 192
SWIDTH 480 0
DWIDTH 10 0
BBX 10 8 0 0
BITMAP
6700
6D80
6D80
7D80
7D80
6D80
6D80
6700
ENDCHAR
STARTCHAR afii10065
ENCODING 193
SWIDTH 480 0
DWIDTH 10 0
BBX 10 8 0 0
BITMAP
3F00
6180
0180
3F80
6180
6180
6180
3E80
ENDCHAR
STARTCHAR afii10066
ENCODING 194
SWIDTH 480 0
DWIDTH 10 0
BBX 10 12 0 0
BITMAP
0100
3E00
6000
6000
3E00
7300
6180
6180
6180
6180
6180
3F00
ENDCHAR
STARTCHAR afii10088
ENCODING 195
SWIDTH 480 0
DWIDTH 10 0
BBX 10 10 0 -2
BITMAP
6180
6180
6180
6180
6180
6180
6180
7FC0
00C0
0380
ENDCHAR
STARTCHAR afii10069
ENCODING 196
SWIDTH 480 0
DWIDTH 10 0
BBX 10 10 0 -2
BITMAP
1F80
3180
3180
3180
3180
3180
3180
7FC0
60C0
60C0
ENDCHAR
STARTCHAR afii10070
ENCODING 197
SWIDTH 480 0
DWIDTH 10 0
BBX 10 8 0 0
BITMAP
3F00
6180
6180
7F80
6000
6000
6180
3F00
ENDCHAR
STARTCHAR afii10086
ENCODING 198
SWIDTH 480 0
DWIDTH 10 0
BBX 10 14 0 -3
BITMAP
0C00
0C00
0C00
3F00
6D80
6D80
6D80
6D80
6D80
6D80
3F00
0C00
0C00
0C00
ENDCHAR
STARTCHAR afii10068
ENCODING 199
SWIDTH 480 0
DWIDTH 10 0
BBX 10 8 0 0
BITMAP
3F80
3000
3000
3000
3000
3000
3000
3000
ENDCHAR
STARTCHAR afii10087
ENCODING 200
SWIDTH 480 0
DWIDTH 10 0
BBX 10 8 0 0
BITMAP
6180
3300
1E00
0C00
0C00
1E00
3300
6180
ENDCHAR
STARTCHAR afii10074
ENCODING 201
SWIDTH 480 0
DWIDTH 10 0
BBX 10 8 0 0
BITMAP
6180
6180
6380
6780
6D80
7980
7180
6180
ENDCHAR
STARTCHAR afii10075
ENCODING 202
SWIDTH 480 0
DWIDTH 10 0
BBX 10 11 0 0
BITMAP
1E00
0C00
0000
6180
6180
6380
6780
6D80
7980
7180
6180
ENDCHAR
STARTCHAR afii10076
ENCODING 203
SWIDTH 480 0
DWIDTH 10 0
BBX 10 8 0 0
BITMAP
6180
6300
6600
7C00
7C00
6600
6300
6180
ENDCHAR
STARTCHAR afii10077
ENCODING 204
SWIDTH 480 0
DWIDTH 10 0
BBX 10 8 0 0
BITMAP
0F80
1980
3180
3180
3180
3180
3180
6180
ENDCHAR
STARTCHAR afii10078
ENCODING 205
SWIDTH 480 0
DWIDTH 10 0
BBX 10 8 0 0
BITMAP
6180
7380
7F80
6D80
6D80
6D80
6180
6180
ENDCHAR
STARTCHAR afii10079
ENCODING 206
SWIDTH 480 0
DWIDTH 10 0
BBX 10 8 0 0
BITMAP
6180
6180
6180
7F80
6180
6180
6180
6180
ENDCHAR
STARTCHAR afii10080
ENCODING 207
SWIDTH 480 0
DWIDTH 10 0
BBX 10 8 0 0
BITMAP
3F00
6180
6180
6180
6180
6180
6180
3F00
ENDCHAR
STARTCHAR afii10081
ENCODING 208
SWIDTH 480 0
DWIDTH 10 0
BBX 10 8 0 0
BITMAP
7F80
6180
6180
6180
6180
6180
6180
6180
ENDCHAR
STARTCHAR afii10097
ENCODING 209
SWIDTH 480 0
DWIDTH 10 0
BBX 10 8 0 0
BITMAP
3F80
6180
6180
6180
3F80
1980
3180
6180
ENDCHAR
STARTCHAR afii10082
ENCODING 210
SWIDTH 480 0
DWIDTH 10 0
BBX 10 11 0 -3
BITMAP
7E00
6300
6180
6180
6180
6180
6300
7E00
6000
6000
6000
ENDCHAR
STARTCHAR afii10083
ENCODING 211
SWIDTH 480 0
DWIDTH 10 0
BBX 10 8 0 0
BITMAP
3F00
6180
6000
6000
6000
6000
6180
3F00
ENDCHAR
STARTCHAR afii10084
ENCODING 212
SWIDTH 480 0
DWIDTH 10 0
BBX 10 8 0 0
BITMAP
7F80
0C00
0C00
0C00
0C00
0C00
0C00
0C00
ENDCHAR
STARTCHAR afii10085
ENCODING 213
SWIDTH 480 0
DWIDTH 10 0
BBX 10 12 0 -4
BITMAP
6180
6180
6180
6180
6180
6180
3380
1D80
0180
6180
3300
1E00
ENDCHAR
STARTCHAR afii10072
ENCODING 214
SWIDTH 480 0
DWIDTH 10 0
BBX 10 8 0 0
BITMAP
6D80
6D80
6D80
3F00
3F00
6D80
6D80
6D80
ENDCHAR
STARTCHAR afii10067
ENCODING 215
SWIDTH 480 0
DWIDTH 10 0
BBX 10 8 0 0
BITMAP
7E00
6300
6300
7F00
6180
6180
6180
7F00
ENDCHAR
STARTCHAR afii10094
ENCODING 216
SWIDTH 480 0
DWIDTH 10 0
BBX 10 8 0 0
BITMAP
6000
6000
6000
7F00
6180
6180
6180
7F00
ENDCHAR
STARTCHAR afii10093
ENCODING 217
SWIDTH 480 0
DWIDTH 10 0
BBX 10 8 0 0
BITMAP
6180
6180
7980
6D80
6D80
6D80
6D80
7980
ENDCHAR
STARTCHAR afii10073
ENCODING 218
SWIDTH 480 0
DWIDTH 10 0
BBX 10 8 0 0
BITMAP
3F00
6180
0180
0F00
0300
0180
6180
3F00
ENDCHAR
STARTCHAR afii10090
ENCODING 219
SWIDTH 480 0
DWIDTH 10 0
BBX 10 8 0 0
BITMAP
6D80
6D80
6D80
6D80
6D80
6D80
6D80
7F80
ENDCHAR
STARTCHAR afii10095
ENCODING 220
SWIDTH 480 0
DWIDTH 10 0
BBX 10 8 0 0
BITMAP
3F00
6180
0180
0180
0F80
0180
6180
3F00
ENDCHAR
STARTCHAR afii10091
ENCODING 221
SWIDTH 480 0
DWIDTH 10 0
BBX 10 10 0 -2
BITMAP
6D80
6D80
6D80
6D80
6D80
6D80
6D80
7FC0
00C0
0380
ENDCHAR
STARTCHAR afii10089
ENCODING 222
SWIDTH 480 0
DWIDTH 10 0
BBX 10 8 0 0
BITMAP
6180
6180
6180
6180
3F80
0180
0180
0180
ENDCHAR
STARTCHAR afii10092
ENCODING 223
SWIDTH 480 0
DWIDTH 10 0
BBX 10 8 0 0
BITMAP
F000
F000
B000
3F00
3180
3180
3180
3F00
ENDCHAR
STARTCHAR afii10048
ENCODING 224
SWIDTH 480 0
DWIDTH 10 0
BBX 10 13 0 0
BITMAP
6700
6D80
6D80
6D80
6D80
6D80
7D80
7D80
6D80
6D80
6D80
6D80
6700
ENDCHAR
STARTCHAR afii10017
ENCODING 225
SWIDTH 480 0
DWIDTH 10 0
BBX 10 13 0 0
BITMAP
1E00
3300
6180
6180
6180
6180
6180
7F80
6180
6180
6180
6180
6180
ENDCHAR
STARTCHAR afii10018
ENCODING 226
SWIDTH 480 0
DWIDTH 10 0
BBX 10 13 0 0
BITMAP
7F00
6000
6000
6000
6000
7F00
6180
6180
6180
6180
6180
6180
7F00
ENDCHAR
STARTCHAR afii10040
ENCODING 227
SWIDTH 480 0
DWIDTH 10 0
BBX 10 15 0 -2
BITMAP
6180
6180
6180
6180
6180
6180
6180
6180
6180
6180
6180
6180
7FC0
00C0
0380
ENDCHAR
STARTCHAR afii10021
ENCODING 228
SWIDTH 480 0
DWIDTH 10 0
BBX 10 15 0 -2
BITMAP
0F80
1980
3180
3180
3180
3180
3180
3180
3180
3180
3180
3180
7FC0
60C0
60C0
ENDCHAR
STARTCHAR afii10022
ENCODING 229
SWIDTH 480 0
DWIDTH 10 0
BBX 10 13 0 0
BITMAP
7F80
6000
6000
6000
6000
6000
7F00
6000
6000
6000
6000
6000
7F80
ENDCHAR
STARTCHAR afii10038
ENCODING 230
SWIDTH 480 0
DWIDTH 10 0
BBX 10 13 0 0
BITMAP
0C00
0C00
3F00
6D80
6D80
6D80
6D80
6D80
6D80
6D80
3F00
0C00
0C00
ENDCHAR
STARTCHAR afii10020
ENCODING 231
SWIDTH 480 0
DWIDTH 10 0
BBX 10 13 0 0
BITMAP
7F80
6000
6000
6000
6000
6000
6000
6000
6000
6000
6000
6000
6000
ENDCHAR
STARTCHAR afii10039
ENCODING 232
SWIDTH 480 0
DWIDTH 10 0
BBX 10 13 0 0
BITMAP
6180
6180
3300
3300
1E00
1E00
0C00
1E00
1E00
3300
3300
6180
6180
ENDCHAR
STARTCHAR afii10026
ENCODING 233
SWIDTH 480 0
DWIDTH 10 0
BBX 10 13 0 0
BITMAP
6180
6180
6180
6180
6380
6780
6F80
7D80
7980
7180
6180
6180
6180
ENDCHAR
STARTCHAR afii10027
ENCODING 234
SWIDTH 480 0
DWIDTH 10 0
BBX 10 15 0 0
BITMAP
1E00
0C00
6180
6180
6180
6180
6380
6780
6F80
7D80
7980
7180
6180
6180
6180
ENDCHAR
STARTCHAR afii10028
ENCODING 235
SWIDTH 480 0
DWIDTH 10 0
BBX 10 13 0 0
BITMAP
6180
6180
6300
6300
6600
6600
7C00
7C00
6600
6300
6300
6180
6180
ENDCHAR
STARTCHAR afii10029
ENCODING 236
SWIDTH 480 0
DWIDTH 10 0
BBX 10 13 0 0
BITMAP
0F80
1980
3180
3180
3180
3180
3180
3180
3180
3180
3180
7180
6180
ENDCHAR
STARTCHAR afii10030
ENCODING 237
SWIDTH 480 0
DWIDTH 10 0
BBX 10 13 0 0
BITMAP
6180
6180
7380
7380
7F80
7F80
7F80
6D80
6D80
6180
6180
6180
6180
ENDCHAR
STARTCHAR afii10031
ENCODING 238
SWIDTH 480 0
DWIDTH 10 0
BBX 10 13 0 0
BITMAP
6180
6180
6180
6180
6180
6180
6180
7F80
6180
6180
6180
6180
6180
ENDCHAR
STARTCHAR afii10032
ENCODING 239
SWIDTH 480 0
DWIDTH 10 0
BBX 10 13 0 0
BITMAP
3F00
6180
6180
6180
6180
6180
6180
6180
6180
6180
6180
6180
3F00
ENDCHAR
STARTCHAR afii10033
ENCODING 240
SWIDTH 480 0
DWIDTH 10 0
BBX 10 13 0 0
BITMAP
7F80
6180
6180
6180
6180
6180
6180
6180
6180
6180
6180
6180
6180
ENDCHAR
STARTCHAR afii10049
ENCODING 241
SWIDTH 480 0
DWIDTH 10 0
BBX 10 13 0 0
BITMAP
3F80
6180
6180
6180
6180
6180
3F80
0F80
1980
3180
6180
6180
6180
ENDCHAR
STARTCHAR afii10034
ENCODING 242
SWIDTH 480 0
DWIDTH 10 0
BBX 10 13 0 0
BITMAP
7F00
6180
6180
6180
6180
6180
6180
7F00
6000
6000
6000
6000
6000
ENDCHAR
STARTCHAR afii10035
ENCODING 243
SWIDTH 480 0
DWIDTH 10 0
BBX 10 13 0 0
BITMAP
3F00
6180
6180
6000
6000
6000
6000
6000
6000
6000
6180
6180
3F00
ENDCHAR
STARTCHAR afii10036
ENCODING 244
SWIDTH 480 0
DWIDTH 10 0
BBX 10 13 0 0
BITMAP
7F80
0C00
0C00
0C00
0C00
0C00
0C00
0C00
0C00
0C00
0C00
0C00
0C00
ENDCHAR
STARTCHAR afii10037
ENCODING 245
SWIDTH 480 0
DWIDTH 10 0
BBX 10 13 0 0
BITMAP
6180
6180
6180
6180
6180
6180
3F80
0180
0180
0180
0180
6180
3F00
ENDCHAR
STARTCHAR afii10024
ENCODING 246
SWIDTH 480 0
DWIDTH 10 0
BBX 10 13 0 0
BITMAP
6D80
6D80
6D80
3F00
3F00
1E00
1E00
1E00
3F00
3F00
6D80
6D80
6D80
ENDCHAR
STARTCHAR afii10019
ENCODING 247
SWIDTH 480 0
DWIDTH 10 0
BBX 10 13 0 0
BITMAP
7C00
6600
6300
6300
6300
6600
7E00
6300
6180
6180
6180
6180
7F00
ENDCHAR
STARTCHAR afii10046
ENCODING 248
SWIDTH 480 0
DWIDTH 10 0
BBX 10 13 0 0
BITMAP
6000
6000
6000
6000
6000
6000
7F00
6180
6180
6180
6180
6180
7F00
ENDCHAR
STARTCHAR afii10045
ENCODING 249
SWIDTH 480 0
DWIDTH 10 0
BBX 10 13 0 0
BITMAP
6180
6180
6180
6180
6180
7980
6D80
6D80
6D80
6D80
6D80
6D80
7980
ENDCHAR
STARTCHAR afii10025
ENCODING 250
SWIDTH 480 0
DWIDTH 10 0
BBX 10 13 0 0
BITMAP
1E00
3300
2180
0180
0180
0300
1E00
0300
0180
0180
6180
3300
1E00
ENDCHAR
STARTCHAR afii10042
ENCODING 251
SWIDTH 480 0
DWIDTH 10 0
BBX 10 13 0 0
BITMAP
6D80
6D80
6D80
6D80
6D80
6D80
6D80
6D80
6D80
6D80
6D80
6D80
7F80
ENDCHAR
STARTCHAR afii10047
ENCODING 252
SWIDTH 480 0
DWIDTH 10 0
BBX 10 13 0 0
BITMAP
1E00
3300
6180
0180
0180
0180
0F80
0180
0180
0180
6180
3300
1E00
ENDCHAR
STARTCHAR afii10043
ENCODING 253
SWIDTH 480 0
DWIDTH 10 0
BBX 10 15 0 -2
BITMAP
6D80
6D80
6D80
6D80
6D80
6D80
6D80
6D80
6D80
6D80
6D80
6D80
7FC0
00C0
0380
ENDCHAR
STARTCHAR afii10041
ENCODING 254
SWIDTH 480 0
DWIDTH 10 0
BBX 10 13 0 0
BITMAP
6180
6180
6180
6180
6180
6180
6180
3F80
0180
0180
0180
0180
0180
ENDCHAR
STARTCHAR afii10044
ENCODING 255
SWIDTH 480 0
DWIDTH 10 0
BBX 10 13 0 0
BITMAP
F000
F000
B000
B000
3000
3000
3F00
3180
3180
3180
3180
3180
3F00
ENDCHAR
ENDFONT
